<svg width="57" height="57" viewBox="0 0 57 57" fill="none" xmlns="http://www.w3.org/2000/svg">
<path d="M50 29H28" stroke="black" stroke-width="2"/>
<path d="M37 20L28 29L37 38" stroke="black" stroke-width="2"/>
<path d="M50.0244 45.6158C46.4482 50.1131 41.5531 53.3774 36.0265 54.95C30.5 56.5226 24.6196 56.3246 19.2114 54.3838C13.8031 52.443 9.13863 48.8569 5.87303 44.1291C2.60742 39.4014 0.904738 33.7695 1.00411 28.0244C1.10349 22.2793 2.99993 16.7096 6.42709 12.0977C9.85425 7.48567 14.64 4.06303 20.1121 2.31044C25.5842 0.557841 31.4679 0.563333 36.9368 2.32614C42.4056 4.08895 47.1849 7.52052 50.6035 12.1389" stroke="black" stroke-width="2"/>
</svg>
