<svg width="57" height="57" viewBox="0 0 57 57" fill="none" xmlns="http://www.w3.org/2000/svg">
<path d="M7 29H29" stroke="black" stroke-width="2"/>
<path d="M20 20L29 29L20 38" stroke="black" stroke-width="2"/>
<path d="M6.97558 45.6158C10.5518 50.1131 15.4469 53.3774 20.9735 54.95C26.5 56.5226 32.3804 56.3246 37.7886 54.3838C43.1969 52.443 47.8614 48.8569 51.127 44.1291C54.3926 39.4014 56.0953 33.7695 55.9959 28.0244C55.8965 22.2793 54.0001 16.7096 50.5729 12.0977C47.1457 7.48567 42.36 4.06303 36.8879 2.31044C31.4158 0.557841 25.5321 0.563333 20.0632 2.32614C14.5944 4.08895 9.81506 7.52052 6.39651 12.1389" stroke="black" stroke-width="2"/>
</svg>
