<svg width="669" height="1453" viewBox="0 0 669 1453" fill="none" xmlns="http://www.w3.org/2000/svg">
<path d="M980.608 1307.81C918 1403.89 812.555 1293.98 706.821 1307.14C591.445 1321.5 571.597 1470.91 463.544 1450.34C355.778 1429.83 256.438 1227.72 150.932 1201.34C57.4608 1177.97 21.4857 1062.85 5.33157 966.147C-10.3132 872.496 11.5142 764.726 62.41 671.443C109.405 585.31 237.51 557.333 276.826 468.549C325.797 357.964 210.787 216.521 301.41 131.737C386.108 52.4957 497.627 186.601 603.862 162.584C703.077 140.154 777.059 12.3761 876.043 1.82559C973.723 -8.58576 1080.77 27.5457 1122.76 107.276C1167.55 192.297 1086.99 315.653 1094.83 417.198C1100.56 491.218 1216.25 488.865 1193.54 618.211C1170.84 747.556 1097.45 730.507 1024.08 820.265C829.53 1058.27 1025.57 1238.82 980.608 1307.81Z" fill="#134FB0"/>
</svg>
