<svg width="906" height="933" viewBox="0 0 906 933" fill="none" xmlns="http://www.w3.org/2000/svg">
<path d="M323.65 30.1689C423.21 27.6995 540.616 -31.3745 617.239 22.7811C697.193 79.2907 627.495 200.401 675.501 278.849C722.906 356.315 855.357 380.111 886.786 463.256C920.068 551.305 912.036 659.514 847.529 733.953C783.126 808.273 655.873 810.163 555.594 845.443C465.319 877.203 382.53 943.64 285.884 931.547C189.619 919.501 143.963 821.964 57.9957 783.179C-37.3243 740.175 -199.516 777.683 -242.121 693.333C-286.319 605.829 -130.669 527.464 -119.013 432.737C-108.581 347.963 -214.212 266.805 -179.787 186.76C-145.92 108.015 -41.2805 65.6051 51.2655 36.8191C138.056 9.82318 231.282 32.4599 323.65 30.1689Z" fill="#FF2C62"/>
</svg>
