<svg width="1134" height="1002" viewBox="0 0 1134 1002" fill="none" xmlns="http://www.w3.org/2000/svg">
<path d="M430.22 987.176C364.07 963.126 325.453 895.906 266.289 857.582C192.123 809.539 84.8855 806.576 36.6376 732.225C-10.4695 659.632 -4.82365 559.406 18.7174 476.07C41.4206 395.699 111.068 340.698 165.13 277.356C212.372 222.002 260.918 170.523 317.941 125.475C378.771 77.4184 435.859 15.9783 512.15 3.2043C588.765 -9.6239 663.143 29.3696 736.436 55.4034C808.763 81.0945 889.807 97.7218 940.793 155.46C991.348 212.711 982.922 300.183 1014.24 369.999C1048.18 445.674 1140.67 502.102 1133.36 584.766C1126.07 667.286 1033.37 712.4 978.515 774.065C931.983 826.377 891.98 884.083 833.326 922.07C774.836 959.95 708.535 982.302 639.851 993.396C569.966 1004.68 496.837 1011.4 430.22 987.176Z" fill="#FF347D"/>
</svg>
