<svg width="759" height="984" viewBox="0 0 759 984" fill="none" xmlns="http://www.w3.org/2000/svg">
<path d="M176.934 138.965C276.66 103.197 383.687 221.212 486.121 194.119C579.839 169.331 601.657 -3.86186 698.516 1.00976C791.092 5.66604 796.967 159.858 872.58 213.556C944.471 264.611 1055.35 238.823 1119.12 299.713C1183.81 361.469 1217.82 455.453 1219.54 544.801C1221.23 633.12 1169.42 711.773 1128.55 790.034C1091.05 861.857 1059.67 945.248 989.387 985.58C919.676 1025.59 823.734 969.751 752.047 1006.11C661.763 1051.9 635.643 1192.24 536.981 1215.02C446.341 1235.96 359.278 1163.84 279.921 1115.14C199.087 1065.54 97.7053 1019.11 69.958 928.454C41.0497 834.007 147.719 741.505 135.562 643.507C122.827 540.848 -7.98049 471.377 0.471238 368.306C8.45809 270.904 84.9582 171.954 176.934 138.965Z" fill="#373540"/>
</svg>
