<svg width="856" height="633" viewBox="0 0 856 633" fill="none" xmlns="http://www.w3.org/2000/svg">
<path d="M595.609 475.648C524.976 527.004 465.41 591.735 380.157 613.732C287.226 637.711 186.297 643.337 98.1551 604.003C7.18941 563.409 -67.7924 488.033 -105.218 397.128C-141.056 310.079 -111.393 216.278 -99.6077 123.65C-87.2865 26.8051 -100.938 -82.0317 -35.0335 -154.521C32.1303 -228.395 141.659 -254.514 243.151 -253.356C335.953 -252.296 407.817 -182.976 494.129 -148.479C594.006 -108.561 721.775 -119.367 787.989 -35.5969C856.964 51.6653 873.729 180.347 835.127 282.93C798.388 380.563 680.657 413.81 595.609 475.648Z" fill="#DD806C"/>
</svg>
