<svg width="439" height="350" viewBox="0 0 439 350" fill="none" xmlns="http://www.w3.org/2000/svg">
<path d="M361.631 344.765C341.12 390.859 328.77 437.442 300.219 479.039C261.06 536.09 233.792 618.5 165.615 630.345C98.0591 642.082 46.4405 572.114 -9.80864 532.901C-62.5632 496.125 -122.046 466.28 -151.633 409.182C-182.917 348.81 -203.033 274.211 -176.244 211.715C-150.282 151.146 -78.1451 129.163 -19.0797 99.9414C26.4546 77.4144 75.9629 76.4961 124.869 62.7466C191.407 44.04 253.32 -17.3875 318.721 4.97142C384.461 27.4461 429.143 100.817 437.848 169.745C446.02 234.459 388.149 285.171 361.631 344.765Z" fill="#42336D"/>
</svg>
