<svg width="779" height="511" viewBox="0 0 779 511" fill="none" xmlns="http://www.w3.org/2000/svg">
<path d="M468.016 3.78955C522.53 18.2169 554.365 73.2358 594.953 112.382C632.62 148.711 669.879 183.733 699.391 226.948C732.248 275.06 775.528 322.346 778.093 380.55C780.664 438.868 738.818 488.386 713.228 540.853C687.635 593.325 670.317 651.719 626.834 690.675C582.573 730.327 524.914 754.313 466.029 762.317C408.812 770.095 351.313 755.34 297.086 735.498C246.292 716.913 200.502 687.807 161.109 650.746C123.294 615.169 99.2844 569.452 73.0006 524.677C44.8014 476.639 0.403364 432.303 0.179819 376.601C-0.0437082 320.904 48.9498 278.751 71.8098 227.96C95.3994 175.548 93.4975 107.671 137.736 70.9743C181.906 34.335 247.74 46.8144 303.978 35.3746C359.237 24.134 413.502 -10.6377 468.016 3.78955Z" fill="#EC1557"/>
</svg>
