<svg width="563" height="459" viewBox="0 0 563 459" fill="none" xmlns="http://www.w3.org/2000/svg">
<path d="M505.466 150.451C529.248 194.436 562.779 236.425 562.494 286.431C562.212 335.951 534.271 381.073 503.928 420.213C476.461 455.643 437.997 479.232 397.739 498.95C360.419 517.229 319.945 521.773 279.265 530.252C230.362 540.445 177.797 577.732 133.875 553.948C89.889 530.128 97.452 463.319 74.0338 419.116C52.6368 378.728 8.80039 350.366 2.06956 305.156C-4.85107 258.67 11.2134 210.284 37.1032 171.054C62.0207 133.297 106.716 116.909 143.593 90.709C183.02 62.6971 215.173 23.2202 262.03 11.2494C313.589 -1.92264 372.486 -5.98037 418.677 20.432C464.695 46.7461 480.253 103.818 505.466 150.451Z" fill="#440E69"/>
</svg>
